<svg version="1" xmlns="http://www.w3.org/2000/svg" width="1349.333" height="1349.333" viewBox="0 0 1012.000000 1012.000000"><path d="M477.9.4c-.2.2-5.1.6-10.9 1-5.8.3-11.6.8-13 1-1.4.2-5.6.8-9.5 1.2-3.8.4-7.2.8-7.5.9-.3.1-3.2.5-6.5.9-32.8 4.3-81.8 17.8-115.5 31.8-5.2 2.2-11.3 4.7-13.5 5.6-4.7 1.9-37 18.1-43.5 21.8-13.6 7.8-19.8 11.6-32 19.7-40.6 27.1-74.1 57-107.2 95.7-6.6 7.7-17.1 21-19.8 25-.8 1.3-2.4 3.5-3.5 4.9-2.4 3-3.1 4-11.8 17.1-13.2 19.8-19.9 31.6-32.2 56.5-20.2 41.2-34.7 84.3-42.6 126.9-.5 2.8-1.1 6.2-1.4 7.6-1.2 5.7-3 18.7-4 27.5-.4 3.3-.9 7.1-1.1 8.5-2.6 16.9-2.6 87.4.1 104.3.2 1.2.6 4.9 1 8.2 1.1 10.3 1.5 13.9 2 15.5.2.8.7 3.5 1 6 3 22.2 16.4 74 23.5 90.5.4 1.1 1.8 4.7 3 8s2.8 7.3 3.5 9c.7 1.6 3 7 5.1 12 9.2 21.9 28.4 57.3 42.2 78 27.7 41.3 62.2 79.6 99.7 110.6 11.4 9.4 11.2 9.2 12.7 10.4 34.1 26.9 85 55.7 125.3 71 30.8 11.7 68.3 22.4 91.4 26.1 1.8.3 4.3.8 5.5 1 2.7.6 27.7 4.1 34.1 4.8 24.3 2.8 88.8 2.9 105.5.2 2.3-.4 9.7-1.3 16.5-2.1 10.1-1.1 35.7-5.8 47-8.7 4.4-1.1 8.8-2.1 9.7-2.3 5.2-1.1 22.8-6.2 34.7-10.2 41.5-13.8 85.7-35.4 121.6-59.6 10.4-6.9 27.7-19.6 34-24.8 1.1-.9 5.2-4.3 9-7.5 36.8-30.4 73-71.1 100-112.4 11.8-18 29.5-50.7 38.3-70.6 7.4-16.9 15.7-39.1 21.2-56.9 6.3-20.3 14.4-55.9 16.5-72.5.4-3 .9-6.4 1.1-7.5.2-1.1.6-4.5.9-7.5.4-3 .8-7.1 1-9 2.7-22.1 2.7-90.2 0-104-.2-1.2-.7-4.9-1-8.3-.3-3.4-.7-7.3-1-8.7-.4-2.7-1.2-7.6-2-13.8-4.8-32.9-17.4-76.2-33.1-114-9.2-21.9-28.5-59.3-37.4-72.2-1-1.4-3.5-5.2-5.6-8.5-24.3-38.2-62.8-81-101.4-113.1-50.9-42.2-110.5-74.1-176-94.2-7.3-2.3-34.2-9.2-38-9.8-1.4-.3-5.4-1.1-9-1.8-3.6-.8-8.3-1.7-10.5-2.1-2.2-.3-4.7-.7-5.5-1-.8-.2-3.7-.6-6.5-1-2.7-.3-6.5-.8-8.2-1.1-7.8-1-10.2-1.3-16.3-1.9-3.6-.4-8.3-.9-10.5-1.1-4.9-.6-69-1.5-69.6-1zm66.1 13c3.6.3 8.1.8 10 1 1.9.3 6.2.8 9.5 1.1 3.3.3 7.1.8 8.5 1 1.4.2 6.1.9 10.5 1.5 4.4.7 8.9 1.4 10 1.6 1.1.2 3.1.6 4.5.9 1.4.3 3.6.7 5 1 1.4.2 5 1 8 1.6 7.9 1.5 23.9 5.6 35.5 9.1 80.1 23.7 150.2 65.4 209.1 124.3C916.2 218 957.5 288.7 982.4 375c1.7 5.8 8.1 33.4 8.9 38.5 3.1 18.4 4.2 25.8 5.3 36.3.2 2.3.6 5.7.9 7.5 1.2 9.7 1.9 25.8 1.9 46.7.1 21.9-.9 48.4-1.9 51.2-.2.7-.7 4-1 7.3-1.1 11-1.3 13-2.4 20-11.1 70.1-38.4 139.9-77.4 198-4.6 6.9-22.2 30.8-25.3 34.5-10.3 12.1-22.7 26.2-26.1 29.8-3.5 3.5-4.7 4.2-7 3.8-1.5-.3-5-.8-7.8-1.1-2.7-.3-7.5-1-10.5-1.5s-7.7-1.2-10.5-1.6c-2.7-.3-5.9-.8-7-1-1.1-.2-5.4-1-9.5-1.8-22.6-4.4-38.5-9.5-61-19.8-16.2-7.4-29.6-12.1-38-13.4-6.6-1.1-26.3-6.4-32.2-8.8-16.6-6.7-34-22.8-35.4-32.8-.3-1.8-.6-4.2-.9-5.3-2.6-12.6-2.7-110.3 0-127 .2-1.7.7-4.8 1-7 2.6-19.2 8.4-30.7 23.7-47 15.8-16.8 19.9-22.5 24.8-34.9 6.1-15.2 8-27 8.5-52 .2-9.9.7-19.8 1-22 .4-2.3.9-5.5 1.1-7.1 1.2-8.3 5.2-21.3 10.2-32.5 12.7-29.1 14.5-34.4 16.6-50.1 3.4-25.6-1.2-56.9-14-94.2-10.4-30.6-19.2-44.7-40.5-65.2-17.7-17.1-34.9-29.4-56.9-40.8-21.7-11.2-49.2-20.3-67-22.2-3-.4-6.1-.8-6.8-1.1-7.7-2.5-59.4-2.4-72.5.2-1.2.2-4 .6-6.2.9-2.2.3-7.6 1.2-12 2.1-4.4.8-9.3 1.8-11 2.1-6.9 1.1-29.7 7.8-39 11.3-38.9 14.8-64.1 34.2-85.4 65.8-7.9 11.7-17.6 33.5-21.1 47.1-3.1 12.3-4 16.4-4.5 19.3-.3 1.8-1 5.8-1.5 8.8-2.9 17.4-3.1 52.1-.4 65.4.2 1.2.7 3.7 1 5.6.3 1.9 1.4 8.7 2.4 15 2.6 15.9 3.1 20.2 4.5 38.5.4 4.9.8 10.2 1.1 11.7.2 1.4.6 12 .9 23.5.6 24.9 1.1 30.4 3.5 40.5 5.5 22.6 19.4 43.5 37.7 56.7 6.2 4.5 12.1 11.1 13.5 15 1.9 5.2 1.5 56.8-.7 99.1-.6 11.7-1.6 28.7-1.9 33-.3 2.5-.7 8.5-1.1 13.5-.3 4.9-.8 10.8-1 13-.2 2.2-.7 6.7-1 10-.9 8.7-1.5 14.5-2 18.7-.3 2.1-.7 5.7-1 8-1.6 13-3.1 15.6-11.8 21.6-14 9.6-25.9 15-59.2 26.8-13.3 4.7-26.9 11.4-45.4 22.3-13.4 7.9-23.5 12.7-39.4 18.6l-12.8 4.8-3.7-3.4c-12.7-11.7-33.8-33.1-42.7-43.4-34.9-40.2-63.6-85.8-82.9-132-2.6-6.1-5.1-11.9-5.6-13-3-6.6-13.8-39.3-16.6-50-.4-1.7-.8-3.5-1-4-7.5-27.3-12.1-55.1-15.1-90.5-1.4-16.9-.5-80.1 1.2-83 .1-.3.6-3.9.9-8 .3-4.1.7-8.4 1-9.5.2-1.1.7-4.2 1-6.8.4-2.7.9-5.6 1-6.5 1.2-6.6 1.6-9.2 2.2-12.6.3-2.1.7-4.6.9-5.5 7.1-34 19.9-74.8 31-98.9 1.4-2.9 2.5-5.5 2.5-5.8 0-.7 15.2-31.2 19-37.9 15.3-27.5 34.9-55.7 55.6-80.2 10.2-11.9 34.6-37.1 45.4-46.8 60.1-54 129.6-91.4 208-111.9 5.2-1.4 10.6-2.7 12-3 1.4-.2 5.7-1.1 9.5-2 8.8-1.8 11.3-2.3 19.5-3.6 3.6-.6 7.7-1.3 9.1-1.5 3.2-.6 7.8-1.2 14.9-1.9 3-.4 7.1-.8 9-1.1 1.9-.2 8.5-.7 14.5-1.1 6.1-.4 11.1-.8 11.3-.9.5-.5 54.7.4 61.2.9zm-8.5 156c4.4.4 8.9.8 10 1 1.1.2 4.3.7 7 1 32.6 4.6 74.4 24 103.5 48.1 23 19.1 36.1 35.6 44.5 56 6.1 14.7 15.1 43.4 16.9 54 .3 1.6.8 4.1 1.1 5.5 2.2 10.2 3.1 36.5 1.5 47.4-1.3 9-5.2 21.4-10 32.1-7.5 16.6-10.1 22.6-10.5 24.5-.2.8-1 3.3-1.8 5.5s-1.8 5.9-2.2 8.3c-.4 2.3-1.1 4.4-1.5 4.7-.9.6-6.6-4-10.8-8.5-6.7-7.2-15-22.5-17.7-32.5l-.8-3-.8 3.5c-.4 1.9-1 4.8-1.3 6.5-.3 1.6-.8 4.3-1.1 6-3.3 18.1-6.1 25.1-12.4 30.8-7.1 6.4-16.9 10.1-33.1 12.5-6 .9-31.2.9-37.5 0-8.5-1.3-20.7-4.7-26.5-7.5-7.4-3.6-17.5-14-22.2-22.8-3.7-7.2-10-22.5-9.2-22.5.3 0 0-.8-.5-1.9-.6-1-1.3-3.3-1.6-5.2-1-5.9-1.5-6.7-5.2-8.4-4.6-2.2-13.7-1.5-16.4 1.2-1 1-3.2 6.5-4.9 12.3-4.8 16.3-12 30-19.9 38-8.7 8.7-17.1 12.5-36.6 16.6-6.4 1.3-31.2 1.2-40-.1-11.9-1.8-24.2-5.8-29.3-9.5-8.4-6.1-11.7-12.8-14.9-30.5-2.1-11.9-2.6-12.7-4.7-7-4.8 12.4-13.3 22.7-22.8 27.4-7.3 3.7-8.8 3.8-8.9.8 0-1.2-.2-2.9-.4-3.7-.1-.8-.6-5.3-.9-10-.9-11-2.6-25.4-5-41.5-.2-1.1-.7-4-1-6.5-.4-2.5-1.1-7.3-1.7-10.6-4.1-27.2-2.8-52.7 4.6-83.9 8-33.9 25.3-62.1 51.6-84 1.3-1.1 6.2-4.6 10.9-7.7 21.7-14.4 45.7-23.8 79-30.7 9.5-2 12.3-2.5 21.5-3.6 2.8-.4 6.1-.8 7.5-1.1 1.4-.2 7.9-.7 14.5-1 6.6-.4 12.1-.8 12.3-.9.4-.4 17.7.2 27.7.9z"/><path d="M514.7 247.6c-.1.1-3.3.4-7.2.8-5.9.6-17.6 2.2-21 3-.5.1-3.6.8-6.8 1.5-12.1 2.6-15.8 5.4-19.7 14.9-3.3 8-10.8 20.8-16.6 28.3-11.3 14.7-21.2 22.8-50.4 41.2-8.8 5.6-17.3 13.8-23 22.4-2.7 4.1-5 7.9-5 8.4s1.7.7 3.8.4c18-2.6 65.8-2.6 83.2 0 8.7 1.4 14.7 3.2 30.7 9.6 23.3 9.3 25.3 9.3 46.4-.2 10.4-4.7 21.7-8 31.9-9.3 19.6-2.6 67.9-2.7 82-.2 1.4.2 4.4.7 6.7 1 2.2.3 5.3.8 6.8 1.2l2.7.7-.7-13.4c-1.1-21.5-1.3-25.7-1.9-39.7-.9-19.5-2.6-25.9-9.2-33.2-12.8-14.1-52.2-30.4-84.4-34.9-4.1-.6-9.5-1.3-12-1.7-4.1-.6-35.7-1.3-36.3-.8zM411.9 377.4c-.2.2-5.8.7-12.4 1-15.1.9-17.9 1.3-23.8 3.8-10.2 4.4-15.1 14.7-14.9 31.8 0 6.2.8 12.3 2.1 17.4 6 22.9 19.6 31.1 53.1 32.1 13.1.4 25.1-2 35.5-7.1 11.7-5.8 19.6-16.2 25.8-33.9 2.1-6.1 3.9-15.8 3.9-21.5.1-4.8-.6-6.6-3.4-9.4-6.9-6.9-24.4-11.1-54.3-13.1-5.5-.4-10.3-.9-10.6-1.1-.3-.2-.8-.2-1 0z"/><path d="M603.9 377.5c-.3.2-6.3.7-13.4 1-29.9 1.4-50.4 6.3-56.9 13.4-2.5 2.8-3 15.4-1 24.1 2.5 10.7 10.8 26.7 16.8 32.5 10.8 10.4 27.6 15.4 50.7 14.9 23.3-.4 39.2-8 45.4-21.7 6-13 7.7-31.6 4.1-43.9-2.6-8.9-9.3-15.3-18.1-17.2-5.9-1.3-7.3-1.4-16.6-2.1-5.2-.4-9.7-.9-10-1.1-.3-.2-.8-.2-1 .1z"/></svg>