<?xml version="1.0" encoding="utf-8"?>
<!-- Generator: Adobe Illustrator 27.4.0, SVG Export Plug-In . SVG Version: 6.00 Build 0)  -->
<svg version="1.1" id="Layer_1" xmlns="http://www.w3.org/2000/svg" xmlns:xlink="http://www.w3.org/1999/xlink" x="0px" y="0px"
	 viewBox="0 0 1024 1024" style="enable-background:new 0 0 1024 1024;" xml:space="preserve">
<style type="text/css">
	.st0{fill:url(#SVGID_1_);}
	.st1{opacity:0.2;}
	.st2{fill:#171717;}
</style>
<linearGradient id="SVGID_1_" gradientUnits="userSpaceOnUse" x1="1024" y1="1024" x2="7.821654e-11" y2="-7.935341e-11">
	<stop  offset="0" style="stop-color:#14A5AD"/>
	<stop  offset="1" style="stop-color:#50E4C9"/>
</linearGradient>
<rect class="st0" width="1024" height="1024"/>
<g>
	<g class="st1">
		<circle class="st2" cx="206" cy="292.1" r="34"/>
		<path class="st2" d="M251.3,231.8v-34c0-25-20.3-45.3-45.3-45.3s-45.3,20.3-45.3,45.3v34c-18.3,13.8-30.2,35.7-30.2,60.4
			c0,41.7,33.8,75.5,75.5,75.5s75.5-33.8,75.5-75.5C281.4,267.4,269.6,245.5,251.3,231.8z M175.8,197.8c0-16.6,13.5-30.2,30.2-30.2
			s30.2,13.5,30.2,30.2V223c-9.2-4-19.5-6.3-30.2-6.3s-20.9,2.3-30.2,6.3V197.8z M206,333.6c-22.9,0-41.5-18.6-41.5-41.5
			c0-22.9,18.6-41.5,41.5-41.5s41.5,18.6,41.5,41.5C247.5,315,228.9,333.6,206,333.6z"/>
		<path class="st2" d="M268.8,878.5H143.2V405.7h125.6V878.5z"/>
		<path class="st2" d="M345.2,878.5V152.8h214.3c64.1,0,121,14.3,170.7,42.9c49.7,28.6,88.1,69.1,115.4,121.6
			c27.2,52.5,40.9,112.6,40.9,180.4v36.4c0,68.8-13.7,129.3-41.1,181.4c-27.4,52.2-66.5,92.4-117.1,120.6
			c-50.7,28.2-108.7,42.4-174.2,42.4H345.2z M471.3,254.5v523.3h82.2c66.1,0,116.9-20.7,152.3-62.1c35.4-41.4,53.4-100.8,54.1-178.2
			v-40.4c0-78.7-17.1-138.9-51.3-180.4c-34.2-41.5-83.9-62.3-149-62.3H471.3z"/>
	</g>
	<g>
		<circle class="st2" cx="213" cy="285.1" r="34"/>
		<path class="st2" d="M258.3,224.8v-34c0-25-20.3-45.3-45.3-45.3s-45.3,20.3-45.3,45.3v34c-18.3,13.8-30.2,35.7-30.2,60.4
			c0,41.7,33.8,75.5,75.5,75.5s75.5-33.8,75.5-75.5C288.4,260.4,276.6,238.5,258.3,224.8z M182.8,190.8c0-16.6,13.5-30.2,30.2-30.2
			s30.2,13.5,30.2,30.2V216c-9.2-4-19.5-6.3-30.2-6.3s-20.9,2.3-30.2,6.3V190.8z M213,326.6c-22.9,0-41.5-18.6-41.5-41.5
			c0-22.9,18.6-41.5,41.5-41.5s41.5,18.6,41.5,41.5C254.5,308,235.9,326.6,213,326.6z"/>
		<path class="st2" d="M275.8,871.5H150.2V398.7h125.6V871.5z"/>
		<path class="st2" d="M352.2,871.5V145.8h214.3c64.1,0,121,14.3,170.7,42.9c49.7,28.6,88.1,69.1,115.4,121.6
			c27.2,52.5,40.9,112.6,40.9,180.4v36.4c0,68.8-13.7,129.3-41.1,181.4c-27.4,52.2-66.5,92.4-117.1,120.6
			c-50.7,28.2-108.7,42.4-174.2,42.4H352.2z M478.3,247.5v523.3h82.2c66.1,0,116.9-20.7,152.3-62.1c35.4-41.4,53.4-100.8,54.1-178.2
			v-40.4c0-78.7-17.1-138.9-51.3-180.4c-34.2-41.5-83.9-62.3-149-62.3H478.3z"/>
	</g>
</g>
</svg>
